<?xml version="1.0" encoding="UTF-8"?>
<svg version="1.1" xmlns="http://www.w3.org/2000/svg" width="432" height="432">
<path d="M0 0 C1.76405552 -0.00435674 3.52810915 -0.00954306 5.29216003 -0.01548767 C10.04626534 -0.02878305 14.80029069 -0.02946715 19.55441093 -0.02692437 C23.53782546 -0.02584856 27.52122421 -0.03075335 31.50463533 -0.03552979 C40.90756206 -0.04659147 50.31044883 -0.04708074 59.71337891 -0.04101562 C69.3842821 -0.03497327 79.05503989 -0.04730122 88.72591829 -0.06858569 C97.0592327 -0.08624575 105.392501 -0.09219627 113.72583342 -0.08894795 C118.68980592 -0.08714255 123.65367461 -0.08969702 128.61763 -0.10366249 C133.28649201 -0.11630879 137.95512834 -0.11423291 142.6239872 -0.1012516 C144.32784924 -0.09890131 146.03172751 -0.10156434 147.73557091 -0.10987473 C163.51399139 -0.18122871 177.2576149 1.19216778 189.40039062 12.38012695 C197.81176599 21.26316823 202.44800676 31.81296446 202.36920166 44.10369873 C202.37232164 44.86145922 202.37544162 45.61921971 202.37865615 46.39994264 C202.38659296 48.92304043 202.38032936 51.44589482 202.37402344 53.96899414 C202.37673531 55.78466939 202.38029734 57.60034355 202.38464355 59.41601562 C202.39374905 64.33769785 202.39023018 69.25929607 202.38388538 74.18097973 C202.3788128 79.34080922 202.38352062 84.50063164 202.38665771 89.66046143 C202.39029499 98.32907396 202.38550587 106.99765241 202.37597656 115.66625977 C202.36510621 125.66991851 202.36860824 135.67349564 202.37962937 145.6771524 C202.38872544 154.27952449 202.38997578 162.8818721 202.38475204 171.48424745 C202.38164331 176.61589281 202.38119245 181.7474999 202.38782501 186.87914276 C202.39363113 191.70875334 202.38954212 196.53825951 202.3780365 201.36785889 C202.37540672 203.13383054 202.37612601 204.89981108 202.38056183 206.66577911 C202.40117903 215.71272206 202.24147761 224.42254512 200.11523438 233.2746582 C199.84710938 234.4502832 199.57898438 235.6259082 199.30273438 236.8371582 C195.14383275 248.87608397 188.20451243 258.79699078 176.85351562 265.02856445 C163.36863786 271.16504948 150.03533347 271.42512054 135.51074219 271.41992188 C133.83594692 271.42291804 132.16115233 271.42632162 130.48635864 271.43009949 C125.95723383 271.43889742 121.42812793 271.44127583 116.8989954 271.44191527 C114.06340656 271.4426282 111.22782246 271.44476711 108.3922348 271.44741249 C98.48284095 271.4566522 88.57346051 271.46074913 78.6640625 271.45996094 C69.45452124 271.45936061 60.24503864 271.46990718 51.03551221 271.4857046 C43.10567872 271.49881796 35.17586432 271.50414324 27.24602008 271.50350553 C22.52010453 271.50325164 17.79424115 271.50604195 13.06833649 271.51668358 C8.61953915 271.5264286 4.17084318 271.52640025 -0.27795792 271.51916695 C-1.90118942 271.518129 -3.52442745 271.52043644 -5.14764786 271.5265274 C-22.08657525 271.58592042 -41.00698288 270.79700321 -53.88476562 258.2746582 C-68.02148645 243.01845489 -69.03695951 226.13472152 -69.0300293 206.28710938 C-69.03302527 204.57128324 -69.0364288 202.85545777 -69.04020691 201.13963318 C-69.04900615 196.49900891 -69.05138329 191.8584031 -69.0520227 187.21777129 C-69.05273547 184.31317629 -69.05487407 181.40858593 -69.05751991 178.50399208 C-69.06675956 168.35584848 -69.07085649 158.20771798 -69.07006836 148.05957031 C-69.06946781 138.62393094 -69.08001874 129.18834878 -69.09581202 119.75272387 C-69.10891814 111.63097561 -69.11425097 103.50924598 -69.11361295 95.38748723 C-69.11335888 90.54590897 -69.11615949 85.70438161 -69.126791 80.86281395 C-69.13652392 76.30649884 -69.1365158 71.75028276 -69.12927437 67.193964 C-69.12823499 65.52999857 -69.13055261 63.86602679 -69.13663483 62.20207214 C-69.19893937 43.96337433 -67.26975688 27.88128856 -54.04101562 14.16918945 C-38.80734069 0.78452941 -19.24031538 -0.03170108 0 0 Z " fill="#5D91DE" transform="translate(143.884765625,69.725341796875)"/>
<path d="M0 0 C3.00469351 2.59496258 3.36858796 3.9214699 5 8 C26.78 8 48.56 8 71 8 C70.9375 33 70.9375 33 70.84741211 40.78515625 C70.87146249 54.77355173 72.45547592 64.71530937 81 76 C81.99 76 82.98 76 84 76 C94.31275581 62.38001861 94.25490752 49.62734684 94.0625 33 C94.041875 24.75 94.02125 16.5 94 8 C115.78 8 137.56 8 160 8 C160.66 6.35 161.32 4.7 162 3 C163.625 1.1875 163.625 1.1875 165 0 C167.5915262 5.93891422 168.40368295 10.54107286 168 17 C169.65 17 171.3 17 173 17 C173.66 15.68 174.32 14.36 175 13 C177.27024968 12.91902676 179.54132075 12.86082296 181.8125 12.8125 C183.07707031 12.77769531 184.34164062 12.74289063 185.64453125 12.70703125 C189 13 189 13 190.68261719 14.11010742 C193.47394496 18.11449369 192.47614255 23.73939452 192.44604492 28.45166016 C192.43752697 30.49353571 192.46630834 32.53261915 192.49804688 34.57421875 C192.49708008 36.50201172 192.49708008 36.50201172 192.49609375 38.46875 C192.49794678 39.64888672 192.4997998 40.82902344 192.50170898 42.04492188 C192 45 192 45 190.14868164 46.88110352 C187.32506764 48.35146177 185.17386027 48.43353267 182 48.4375 C180.96875 48.45683594 179.9375 48.47617188 178.875 48.49609375 C175.25711582 47.8718121 174.27021186 46.84016843 172 44 C171.54589844 41.43457031 171.54589844 41.43457031 171.609375 38.578125 C171.62226563 37.55332031 171.63515625 36.52851563 171.6484375 35.47265625 C171.69871094 33.87744141 171.69871094 33.87744141 171.75 32.25 C171.76804687 31.17105469 171.78609375 30.09210938 171.8046875 28.98046875 C171.85178585 26.31941212 171.917544 23.66015746 172 21 C170.68 21 169.36 21 168 21 C168.01110306 22.17240234 168.02220612 23.34480469 168.03364563 24.55273438 C168.13512782 35.61669718 168.21001654 46.68056519 168.25906086 57.74488831 C168.28512306 63.43282512 168.32046012 69.12038536 168.37719727 74.80810547 C168.43163643 80.30000495 168.46144594 85.79154286 168.47438622 91.28369141 C168.48360465 93.37603444 168.5016063 95.46835831 168.52865028 97.56054688 C168.56509836 100.49782638 168.5699387 103.43362347 168.56762695 106.37109375 C168.59459152 107.66043068 168.59459152 107.66043068 168.62210083 108.97581482 C168.56961787 115.16338334 166.85238855 119.16433483 163 124 C158.41431936 128.3077606 154.10817078 128.11746482 148 128 C148.03480469 128.66386719 148.06960938 129.32773437 148.10546875 130.01171875 C148.32545586 137.18748875 147.38587033 140.37554263 142.5 145.75 C137.91418657 149.87723209 132.98367975 149.28332791 127.125 149.375 C125.77728516 149.43107422 125.77728516 149.43107422 124.40234375 149.48828125 C119.70984154 149.55066311 117.70394452 149.56423034 113.9296875 146.5390625 C113.29289063 145.70117188 112.65609375 144.86328125 112 144 C111.67 143.67 111.34 143.34 111 143 C111 139.37 111 135.74 111 132 C103.08 132 95.16 132 87 132 C86.34 133.65 85.68 135.3 85 137 C83.70896357 138.3743291 82.3743291 139.70896357 81 141 C79.98487453 142.32185403 78.98244845 143.65368175 78 145 C77.01993141 143.37554381 76.04097364 141.75041739 75.0625 140.125 C74.51722656 139.22007812 73.97195312 138.31515625 73.41015625 137.3828125 C72.56101983 135.94798364 71.74562276 134.49124552 71 133 C63.74 132.67 56.48 132.34 49 132 C48.67 134.97 48.34 137.94 48 141 C45.89452 143.47103121 44.66858706 143.88778593 41.49804688 144.41992188 C38.49772263 144.47263312 35.50085222 144.50740038 32.5 144.5 C31.45457031 144.52835938 30.40914062 144.55671875 29.33203125 144.5859375 C21.75476814 144.6053415 21.75476814 144.6053415 18.296875 141.83203125 C16.84758254 138.66716067 16.58318756 136.64885806 16.75 133.1875 C16.80414063 131.72376953 16.80414063 131.72376953 16.859375 130.23046875 C16.90578125 129.49441406 16.9521875 128.75835937 17 128 C16.43152344 128.04640625 15.86304688 128.0928125 15.27734375 128.140625 C9.4520274 128.41292693 5.52627205 127.78453964 1 124 C-3.00279265 118.37263085 -3.56621414 114.19471097 -3.45410156 107.39282227 C-3.45468567 106.45545731 -3.45526978 105.51809235 -3.45587158 104.55232239 C-3.45309877 101.47329875 -3.42204443 98.39525947 -3.390625 95.31640625 C-3.38315977 93.17407256 -3.37746817 91.03173201 -3.37347412 88.88938904 C-3.35824013 83.26519748 -3.31897725 77.64142256 -3.2746582 72.01739502 C-3.23365744 66.27272171 -3.21545283 60.52798074 -3.1953125 54.78320312 C-3.15248111 43.52195289 -3.08425661 32.26101116 -3 21 C-4.32 21 -5.64 21 -7 21 C-6.97905273 21.67579102 -6.95810547 22.35158203 -6.93652344 23.04785156 C-6.85328357 26.11508254 -6.80131534 29.18207582 -6.75 32.25 C-6.69972656 33.84521484 -6.69972656 33.84521484 -6.6484375 35.47265625 C-6.63554688 36.49746094 -6.62265625 37.52226562 -6.609375 38.578125 C-6.58842773 39.52075195 -6.56748047 40.46337891 -6.54589844 41.43457031 C-7.13792304 44.77919103 -8.35354058 45.9374103 -11 48 C-14.12890625 48.49609375 -14.12890625 48.49609375 -17.5625 48.4375 C-19.26599609 48.43556641 -19.26599609 48.43556641 -21.00390625 48.43359375 C-24 48 -24 48 -25.66235352 46.88110352 C-27.64006412 44.09989158 -27.38873519 41.85254661 -27.3984375 38.46875 C-27.40230469 37.18355469 -27.40617187 35.89835937 -27.41015625 34.57421875 C-27.40387207 33.90567871 -27.39758789 33.23713867 -27.39111328 32.54833984 C-27.37505354 30.5068067 -27.39096671 28.46725292 -27.41015625 26.42578125 C-27.40628906 25.14058594 -27.40242188 23.85539062 -27.3984375 22.53125 C-27.39505371 21.35111328 -27.39166992 20.17097656 -27.38818359 18.95507812 C-27 16 -27 16 -25.68041992 14.11450195 C-22.90103789 12.27113729 -20.2067286 12.64354967 -16.9375 12.6875 C-15.68839844 12.69136719 -14.43929687 12.69523438 -13.15234375 12.69921875 C-10 13 -10 13 -8 15 C-5.42938689 15.64767793 -5.42938689 15.64767793 -3 16 C-3.061875 14.845 -3.12375 13.69 -3.1875 12.5 C-3.21274356 7.78786879 -1.84474512 4.30440528 0 0 Z " fill="#3871C6" transform="translate(134,145)"/>
<path d="M0 0 C0.495 0.99 0.495 0.99 1 2 C0.030625 2.495 -0.93875 2.99 -1.9375 3.5 C-12.48552308 9.6067502 -19.57323098 18.39168692 -23.35161209 29.9881916 C-24.82998912 36.85535907 -24.41434968 44.03481386 -24.38818359 51.02905273 C-24.39225325 52.85649936 -24.39759733 54.68394352 -24.40411377 56.51138306 C-24.41774729 61.45564054 -24.41250485 66.39970944 -24.40297651 71.34397006 C-24.3953582 76.52961643 -24.40243166 81.71524713 -24.40713501 86.90089417 C-24.41258673 95.60884486 -24.40541677 104.31671912 -24.39111328 113.0246582 C-24.37479305 123.0761282 -24.38007311 133.12741555 -24.3965925 143.17888111 C-24.41023012 151.8245984 -24.41211575 160.47026088 -24.40427649 169.11598545 C-24.39961183 174.27273713 -24.39894174 179.42940312 -24.40888596 184.58614922 C-24.41758631 189.43635048 -24.41147782 194.28631757 -24.39420319 199.13649368 C-24.39025448 200.91094767 -24.39134453 202.68542155 -24.39799118 204.45986748 C-24.44991673 219.73719079 -22.45670309 232.1462339 -11.75 243.8125 C-6.50126762 248.74630844 -0.07815553 251.81610922 7 253 C7 253.66 7 254.32 7 255 C31.6787282 255.11697427 56.35741464 255.20505724 81.03636456 255.25906086 C92.49609857 255.28480589 103.95565999 255.31988564 115.4152832 255.37719727 C125.40737507 255.42714554 135.39934189 255.45931789 145.39155513 255.47044247 C150.67889029 255.47694188 155.96586783 255.49214001 161.253088 255.52865028 C166.23783228 255.56279036 171.22207434 255.57301678 176.20692444 255.56553841 C178.02851918 255.56690494 179.85013211 255.57672944 181.67162514 255.59602737 C193.41818225 255.71428859 204.50168309 255.41526409 214 247.5 C214.66 246.675 215.32 245.85 216 245 C218.55257199 242.44742801 221.10504548 239.89739744 223.6875 237.375 C226.11275676 235.02914245 226.11275676 235.02914245 228 232 C228.66 232 229.32 232 230 232 C228.31970007 243.38869953 222.37340027 251.67290159 213.6796875 259.05859375 C199.62175567 269.24342191 183.02681673 269.15121638 166.39550781 269.14526367 C164.72071254 269.14825984 163.04591796 269.15166341 161.37112427 269.15544128 C156.84199945 269.16423922 152.31289356 269.16661763 147.78376102 269.16725707 C144.94817218 269.16797 142.11258809 269.1701089 139.27700043 269.17275429 C129.36760658 269.18199399 119.45822614 269.18609092 109.54882812 269.18530273 C100.33928686 269.18470241 91.12980426 269.19524898 81.92027783 269.2110464 C73.99044435 269.22415975 66.06062994 269.22948504 58.1307857 269.22884732 C53.40487015 269.22859344 48.67900678 269.23138374 43.95310211 269.24202538 C39.50430477 269.2517704 35.05560881 269.25174204 30.60680771 269.24450874 C28.98357621 269.2434708 27.36033817 269.24577824 25.73711777 269.2518692 C8.79819038 269.31126222 -10.12221726 268.522345 -23 256 C-37.13672082 240.74379668 -38.15219389 223.86006332 -38.14526367 204.01245117 C-38.14825964 202.29662503 -38.15166317 200.58079957 -38.15544128 198.86497498 C-38.16424052 194.2243507 -38.16661766 189.5837449 -38.16725707 184.94311309 C-38.16796984 182.03851809 -38.17010845 179.13392772 -38.17275429 176.22933388 C-38.18199394 166.08119028 -38.18609087 155.93305978 -38.18530273 145.78491211 C-38.18470218 136.34927274 -38.19525312 126.91369057 -38.2110464 117.47806567 C-38.22415251 109.35631741 -38.22948535 101.23458778 -38.22884732 93.11282903 C-38.22859326 88.27125077 -38.23139386 83.4297234 -38.24202538 78.58815575 C-38.2517583 74.03184063 -38.25175017 69.47562455 -38.24450874 64.9193058 C-38.24346936 63.25534036 -38.24578699 61.59136859 -38.2518692 59.92741394 C-38.31417374 41.68871612 -36.38499125 25.60663035 -23.15625 11.89453125 C-16.36362972 5.92637756 -8.51756748 2.75282599 0 0 Z " fill="#120F0C" transform="translate(113,72)"/>
<path d="M0 0 C3.2822913 2.96969213 5.76119794 6.09476484 6.32279968 10.57539368 C6.28615959 11.94440071 6.28615959 11.94440071 6.2487793 13.34106445 C6.22853195 14.3817659 6.20828461 15.42246735 6.18742371 16.4947052 C6.13138725 18.16215034 6.13138725 18.16215034 6.07421875 19.86328125 C6.03455742 21.58396065 6.03455742 21.58396065 5.99409485 23.33940125 C5.9064345 26.99763623 5.79724579 30.65486745 5.6875 34.3125 C5.62423079 36.79488608 5.5623651 39.27730836 5.50195312 41.75976562 C5.35354052 47.84061647 5.17602731 53.91963499 5 60 C15.23 60 25.46 60 36 60 C42.5625 71.375 42.5625 71.375 44.77001953 75.20166016 C48.85107811 82.27597803 52.9335061 89.34950276 57.01708984 96.42236328 C58.89816351 99.68183876 60.77738667 102.94237503 62.65625 106.203125 C64.66964826 109.69709652 66.68896049 113.18740302 68.71875 116.671875 C69.45834707 117.9479087 70.19793184 119.22394954 70.9375 120.5 C71.54464844 121.5415625 72.15179688 122.583125 72.77734375 123.65625 C74 126 74 126 74 128 C65.75 128 57.5 128 49 128 C49 131.3 49 134.6 49 138 C46.97368421 142.51315789 46.97368421 142.51315789 44 144 C40.21520716 144.32088284 36.42171831 144.32431565 32.625 144.375 C31.04332031 144.43107422 31.04332031 144.43107422 29.4296875 144.48828125 C21.72323968 144.57629906 21.72323968 144.57629906 18.2890625 141.83984375 C16.85149732 138.67284409 16.58331371 136.64624058 16.75 133.1875 C16.80414063 131.72376953 16.80414063 131.72376953 16.859375 130.23046875 C16.90578125 129.49441406 16.9521875 128.75835937 17 128 C16.43152344 128.04640625 15.86304688 128.0928125 15.27734375 128.140625 C9.4520274 128.41292693 5.52627205 127.78453964 1 124 C-3.00279265 118.37263085 -3.56621414 114.19471097 -3.45410156 107.39282227 C-3.45468567 106.45545731 -3.45526978 105.51809235 -3.45587158 104.55232239 C-3.45309877 101.47329875 -3.42204443 98.39525947 -3.390625 95.31640625 C-3.38315977 93.17407256 -3.37746817 91.03173201 -3.37347412 88.88938904 C-3.35824013 83.26519748 -3.31897725 77.64142256 -3.2746582 72.01739502 C-3.23365744 66.27272171 -3.21545283 60.52798074 -3.1953125 54.78320312 C-3.15248111 43.52195289 -3.08425661 32.26101116 -3 21 C-4.32 21 -5.64 21 -7 21 C-6.97905273 21.67579102 -6.95810547 22.35158203 -6.93652344 23.04785156 C-6.85328357 26.11508254 -6.80131534 29.18207582 -6.75 32.25 C-6.69972656 33.84521484 -6.69972656 33.84521484 -6.6484375 35.47265625 C-6.63554688 36.49746094 -6.62265625 37.52226562 -6.609375 38.578125 C-6.58842773 39.52075195 -6.56748047 40.46337891 -6.54589844 41.43457031 C-7.13792304 44.77919103 -8.35354058 45.9374103 -11 48 C-14.12890625 48.49609375 -14.12890625 48.49609375 -17.5625 48.4375 C-19.26599609 48.43556641 -19.26599609 48.43556641 -21.00390625 48.43359375 C-24 48 -24 48 -25.66235352 46.88110352 C-27.64006412 44.09989158 -27.38873519 41.85254661 -27.3984375 38.46875 C-27.40230469 37.18355469 -27.40617187 35.89835937 -27.41015625 34.57421875 C-27.40387207 33.90567871 -27.39758789 33.23713867 -27.39111328 32.54833984 C-27.37505354 30.5068067 -27.39096671 28.46725292 -27.41015625 26.42578125 C-27.40628906 25.14058594 -27.40242188 23.85539062 -27.3984375 22.53125 C-27.39505371 21.35111328 -27.39166992 20.17097656 -27.38818359 18.95507812 C-27 16 -27 16 -25.68041992 14.11450195 C-22.90103789 12.27113729 -20.2067286 12.64354967 -16.9375 12.6875 C-15.68839844 12.69136719 -14.43929687 12.69523438 -13.15234375 12.69921875 C-10 13 -10 13 -8 15 C-5.42938689 15.64767793 -5.42938689 15.64767793 -3 16 C-3.061875 14.845 -3.12375 13.69 -3.1875 12.5 C-3.21274356 7.78786879 -1.84474512 4.30440528 0 0 Z " fill="#272118" transform="translate(134,145)"/>
<path d="M0 0 C2 1 2 1 3.125 4 C4.27521462 8.32229088 4.18124209 12.55956873 4 17 C5.65 17 7.3 17 9 17 C9.66 15.68 10.32 14.36 11 13 C13.27024968 12.91902676 15.54132075 12.86082296 17.8125 12.8125 C19.07707031 12.77769531 20.34164062 12.74289063 21.64453125 12.70703125 C25 13 25 13 26.68261719 14.11010742 C29.47394496 18.11449369 28.47614255 23.73939452 28.44604492 28.45166016 C28.43752697 30.49353571 28.46630834 32.53261915 28.49804688 34.57421875 C28.49708008 36.50201172 28.49708008 36.50201172 28.49609375 38.46875 C28.49794678 39.64888672 28.4997998 40.82902344 28.50170898 42.04492188 C28 45 28 45 26.14868164 46.88110352 C23.32506764 48.35146177 21.17386027 48.43353267 18 48.4375 C16.96875 48.45683594 15.9375 48.47617188 14.875 48.49609375 C11.25711582 47.8718121 10.27021186 46.84016843 8 44 C7.54589844 41.43457031 7.54589844 41.43457031 7.609375 38.578125 C7.62226563 37.55332031 7.63515625 36.52851563 7.6484375 35.47265625 C7.68195313 34.40917969 7.71546875 33.34570312 7.75 32.25 C7.76804687 31.17105469 7.78609375 30.09210938 7.8046875 28.98046875 C7.85178585 26.31941212 7.917544 23.66015746 8 21 C6.68 21 5.36 21 4 21 C4.01110306 22.17240234 4.02220612 23.34480469 4.03364563 24.55273438 C4.13512782 35.61669718 4.21001654 46.68056519 4.25906086 57.74488831 C4.28512306 63.43282512 4.32046012 69.12038536 4.37719727 74.80810547 C4.43163643 80.30000495 4.46144594 85.79154286 4.47438622 91.28369141 C4.48360465 93.37603444 4.5016063 95.46835831 4.52865028 97.56054688 C4.56509836 100.49782638 4.5699387 103.43362347 4.56762695 106.37109375 C4.58560333 107.2306517 4.60357971 108.09020966 4.62210083 108.97581482 C4.56961787 115.16338334 2.85238855 119.16433483 -1 124 C-5.58568064 128.3077606 -9.89182922 128.11746482 -16 128 C-15.96519531 128.66386719 -15.93039062 129.32773437 -15.89453125 130.01171875 C-15.61990141 138.96988245 -15.61990141 138.96988245 -19 143 C-22.98808092 144.99404046 -27.98995527 144.27258758 -32.375 144.3125 C-33.42945313 144.34150391 -34.48390625 144.37050781 -35.5703125 144.40039062 C-36.58609375 144.40876953 -37.601875 144.41714844 -38.6484375 144.42578125 C-40.04328369 144.44765503 -40.04328369 144.44765503 -41.46630859 144.4699707 C-44 144 -44 144 -48 140 C-48 136.04 -48 132.08 -48 128 C-56.58 128 -65.16 128 -74 128 C-72.4840625 125.3703125 -72.4840625 125.3703125 -70.9375 122.6875 C-67.47138628 116.64997162 -64.09488805 110.56473414 -60.72973633 104.47045898 C-53.3839033 91.1735003 -45.81942219 78.02549566 -38 65 C-37.5970874 64.09531982 -37.1941748 63.19063965 -36.77905273 62.25854492 C-35 60 -35 60 -31.8137207 59.43237305 C-30.53070068 59.45855713 -29.24768066 59.48474121 -27.92578125 59.51171875 C-27.2419487 59.51879349 -26.55811615 59.52586823 -25.8535614 59.53315735 C-23.67208841 59.56111996 -21.49319506 59.62384936 -19.3125 59.6875 C-17.8327194 59.71258103 -16.35289851 59.73539456 -14.87304688 59.75585938 C-11.24786137 59.81094865 -7.62418247 59.89722892 -4 60 C-4.02363113 59.36630493 -4.04726227 58.73260986 -4.0716095 58.07971191 C-4.31324131 51.46145258 -4.51806107 44.84276751 -4.7019043 38.22265625 C-4.77521805 35.7549122 -4.85779458 33.28742473 -4.94995117 30.8203125 C-5.08109176 27.26590105 -5.17846592 23.71188677 -5.26953125 20.15625 C-5.31721146 19.06010376 -5.36489166 17.96395752 -5.41401672 16.83459473 C-5.55148441 9.82269086 -4.48415081 5.46990799 0 0 Z " fill="#282219" transform="translate(298,145)"/>
<path d="M0 0 C59.07 0 118.14 0 179 0 C175.78843087 8.02892281 171.19955573 15.44079968 167 23 C145.22 23 123.44 23 101 23 C101.39328154 39.34926674 101.39328154 39.34926674 101.90087891 55.69506836 C102.19173485 69.94177469 100.73935003 81.03718644 91 92 C90.01 92 89.02 92 88 92 C86.31176427 89.56538637 84.82823873 87.19395104 83.375 84.625 C82.96765625 83.92632812 82.5603125 83.22765625 82.140625 82.5078125 C77.87400648 75.16131704 77.87400648 75.16131704 77.88647461 69.99951172 C77.88659546 68.94401123 77.88671631 67.88851074 77.88684082 66.80102539 C77.89195679 65.68848389 77.89707275 64.57594238 77.90234375 63.4296875 C77.90335083 62.4094751 77.90435791 61.3892627 77.90539551 60.33813477 C77.91063837 56.51707845 77.92459957 52.69603813 77.9375 48.875 C77.958125 40.33625 77.97875 31.7975 78 23 C56.22 23 34.44 23 12 23 C0 2 0 2 0 0 Z " fill="#FBFCFD" transform="translate(127,130)"/>
<path d="M0 0 C1.63801706 -0.00202681 3.27603323 -0.00494326 4.91404724 -0.00869751 C8.32714531 -0.01309113 11.74000596 -0.0067855 15.15307617 0.00732422 C19.49908852 0.02442809 23.84454533 0.01454855 28.19053745 -0.00339317 C31.56658518 -0.01430008 34.94250395 -0.01075347 38.31855583 -0.0030098 C39.91992193 -0.00102752 41.52130025 -0.00339658 43.12265205 -0.01044846 C61.75371867 -0.07452718 77.07993473 4.37919939 91.015625 17.3828125 C92.80859375 19.3984375 92.80859375 19.3984375 93.80859375 22.3984375 C44.96859375 22.3984375 -3.87140625 22.3984375 -54.19140625 22.3984375 C-39.00707158 4.68338038 -22.65322162 -0.09990472 0 0 Z " fill="#262018" transform="translate(196.19140625,106.6015625)"/>
<path d="M0 0 C20.13 0 40.26 0 61 0 C61.93512434 2.80537303 62.12182907 4.48165364 62.11352539 7.37963867 C62.11344986 8.26032516 62.11337433 9.14101166 62.11329651 10.04838562 C62.10813522 10.99534805 62.10297394 11.94231049 62.09765625 12.91796875 C62.0962413 13.89034988 62.09482635 14.86273102 62.09336853 15.86457825 C62.08776817 18.97225004 62.07521562 22.07984996 62.0625 25.1875 C62.05748505 27.29361875 62.05292213 29.39973863 62.04882812 31.50585938 C62.03864925 36.67062293 62.01907383 41.83523094 62 47 C53.42 47 44.84 47 36 47 C39.60788833 40.38553806 43.2155909 33.77324197 46.875 27.1875 C47.29700684 26.42775879 47.71901367 25.66801758 48.15380859 24.88525391 C52.0465531 17.8911872 56.00712097 10.93734847 60 4 C55.8741803 4.08055808 51.74987369 4.19342685 47.625 4.3125 C46.449375 4.33505859 45.27375 4.35761719 44.0625 4.38085938 C42.94101562 4.41630859 41.81953125 4.45175781 40.6640625 4.48828125 C39.10872803 4.52755737 39.10872803 4.52755737 37.52197266 4.56762695 C36.68972168 4.71031006 35.8574707 4.85299316 35 5 C34.34 5.99 33.68 6.98 33 8 C32.01 8 31.02 8 30 8 C29.79890625 8.76957031 29.5978125 9.53914062 29.390625 10.33203125 C27.4369695 15.48507203 24.60328981 19.98627418 21.75 24.6875 C17.3198594 32.03542286 13.04978203 39.43470554 9 47 C6.03 47 3.06 47 0 47 C0 31.49 0 15.98 0 0 Z " fill="#5D91DF" transform="translate(228,157)"/>
<path d="M0 0 C20.13 0 40.26 0 61 0 C61 15.51 61 31.02 61 47 C59.02 47 57.04 47 55 47 C52.96289062 44.67260742 52.96289062 44.67260742 51.15625 41.41796875 C50.82403442 40.83556931 50.49181885 40.25316986 50.14953613 39.65312195 C49.44323285 38.41158933 48.74631584 37.16467743 48.05810547 35.9130249 C47.02013969 34.03641199 45.94948982 32.18351614 44.86328125 30.33447266 C43.07531337 27.28981617 41.31214594 24.23196586 39.56054688 21.16625977 C38.47731119 19.27284158 37.38716285 17.38350489 36.296875 15.49414062 C35.60374824 14.28409375 34.9110236 13.07381642 34.21875 11.86328125 C33.59935547 10.78344971 32.97996094 9.70361816 32.34179688 8.59106445 C31 6 31 6 31 4 C22.42 4 13.84 4 5 4 C5.33 5.32 5.66 6.64 6 8 C4.35 8 2.7 8 1 8 C5.77634918 16.89851193 10.81014508 25.63497765 15.92089844 34.3449707 C16.92766076 36.06237489 17.92877273 37.78308751 18.9296875 39.50390625 C19.51991699 40.51267822 20.11014648 41.5214502 20.71826172 42.56079102 C22 45 22 45 22 47 C14.74 47 7.48 47 0 47 C0 31.49 0 15.98 0 0 Z " fill="#5D91DF" transform="translate(140,157)"/>
<path d="M0 0 C1.32 0 2.64 0 4 0 C4.00364563 1.18715103 4.00729126 2.37430206 4.01104736 3.59742737 C4.04801552 14.79439677 4.10580841 25.99109161 4.18390274 37.18785191 C4.22338346 42.94401235 4.25556919 48.70001967 4.27099609 54.45629883 C4.28615851 60.01319758 4.32059734 65.56967538 4.36830902 71.12638664 C4.38312698 73.24458084 4.39104125 75.36283514 4.39188385 77.48108101 C4.39425394 80.45211602 4.42133788 83.42198815 4.45410156 86.39282227 C4.4490712 87.26532623 4.44404083 88.1378302 4.43885803 89.03677368 C4.53741583 94.82707085 5.63839602 98.24751927 9 103 C13.66940435 106.25772396 18.4636113 106.64321051 24 107 C24.03738281 107.74765625 24.07476562 108.4953125 24.11328125 109.265625 C24.17902344 110.25046875 24.24476563 111.2353125 24.3125 112.25 C24.37050781 113.22453125 24.42851562 114.1990625 24.48828125 115.203125 C25.07183898 118.39264663 25.75879599 119.68101017 28 122 C30.50074174 122.64070996 30.50074174 122.64070996 33.32421875 122.609375 C34.35224609 122.64160156 35.38027344 122.67382812 36.43945312 122.70703125 C37.51130859 122.72121094 38.58316406 122.73539062 39.6875 122.75 C40.77095703 122.77964844 41.85441406 122.80929687 42.97070312 122.83984375 C45.64721059 122.91058844 48.32284479 122.96326156 51 123 C51 123.66 51 124.32 51 125 C45.71576316 128.2478724 41.44573035 128.45864126 35.4375 128.375 C34.60025391 128.38660156 33.76300781 128.39820313 32.90039062 128.41015625 C28.13375948 128.38751192 24.84867354 128.12466564 21 125 C19.61773984 122.23547967 19.90474613 119.9538637 19.9375 116.875 C19.94652344 115.77929688 19.95554688 114.68359375 19.96484375 113.5546875 C19.97644531 112.71164062 19.98804688 111.86859375 20 111 C19.34773438 111.04640625 18.69546875 111.0928125 18.0234375 111.140625 C12.09011168 111.3856591 8.64138262 111.08883707 4 107 C-0.90728231 101.69482993 -1.12014355 97.86103698 -1.22119141 90.76879883 C-1.2326973 90.04805679 -1.24420319 89.32731476 -1.25605774 88.58473206 C-1.29266213 86.20887459 -1.32235371 83.83299031 -1.3515625 81.45703125 C-1.37468192 79.80604177 -1.39807229 78.15505606 -1.42172241 76.5040741 C-1.47011887 73.04840378 -1.51506381 69.59270994 -1.55761719 66.13696289 C-1.61258167 61.69789256 -1.67639325 57.25900063 -1.74279213 52.82008839 C-1.79274021 49.41363464 -1.83791522 46.00713055 -1.88163376 42.60059166 C-1.90325541 40.96302924 -1.926411 39.32548636 -1.9510994 37.6879673 C-1.98480856 35.40634764 -2.0120812 33.12474152 -2.03759766 30.84301758 C-2.05456696 29.54270096 -2.07153625 28.24238434 -2.08901978 26.90266418 C-2 24 -2 24 -1 23 C-0.84259395 21.29436222 -0.74906608 19.58272756 -0.68359375 17.87109375 C-0.64169922 16.83662109 -0.59980469 15.80214844 -0.55664062 14.73632812 C-0.51732422 13.64771484 -0.47800781 12.55910156 -0.4375 11.4375 C-0.37272461 9.7987793 -0.37272461 9.7987793 -0.30664062 8.12695312 C-0.20017932 5.41810436 -0.09816484 2.70916008 0 0 Z " fill="#4E76B3" transform="translate(127,166)"/>
<path d="M0 0 C1.24910156 0.00386719 2.49820313 0.00773438 3.78515625 0.01171875 C6.9375 0.3125 6.9375 0.3125 8.9375 2.3125 C11.50811311 2.96017793 11.50811311 2.96017793 13.9375 3.3125 C13.6075 4.3025 13.2775 5.2925 12.9375 6.3125 C13.2675 6.9725 13.5975 7.6325 13.9375 8.3125 C12.6175 8.3125 11.2975 8.3125 9.9375 8.3125 C9.95844727 8.98829102 9.97939453 9.66408203 10.00097656 10.36035156 C10.08421643 13.42758254 10.13618466 16.49457582 10.1875 19.5625 C10.23777344 21.15771484 10.23777344 21.15771484 10.2890625 22.78515625 C10.30195312 23.80996094 10.31484375 24.83476562 10.328125 25.890625 C10.34907227 26.83325195 10.37001953 27.77587891 10.39160156 28.74707031 C9.79957696 32.09169103 8.58395942 33.2499103 5.9375 35.3125 C2.80859375 35.80859375 2.80859375 35.80859375 -0.625 35.75 C-2.32849609 35.74806641 -2.32849609 35.74806641 -4.06640625 35.74609375 C-7.0625 35.3125 -7.0625 35.3125 -8.72485352 34.19360352 C-10.70256412 31.41239158 -10.45123519 29.16504661 -10.4609375 25.78125 C-10.46480469 24.49605469 -10.46867187 23.21085937 -10.47265625 21.88671875 C-10.46637207 21.21817871 -10.46008789 20.54963867 -10.45361328 19.86083984 C-10.43755354 17.8193067 -10.45346671 15.77975292 -10.47265625 13.73828125 C-10.46878906 12.45308594 -10.46492188 11.16789063 -10.4609375 9.84375 C-10.45755371 8.66361328 -10.45416992 7.48347656 -10.45068359 6.26757812 C-10.0625 3.3125 -10.0625 3.3125 -8.74291992 1.42700195 C-5.96353789 -0.41636271 -3.2692286 -0.04395033 0 0 Z " fill="#29241C" transform="translate(117.0625,157.6875)"/>
<path d="M0 0 C1.88332031 -0.03867188 1.88332031 -0.03867188 3.8046875 -0.078125 C7.125 0.25 7.125 0.25 8.80541992 1.36230469 C11.60144789 5.362099 10.60113164 10.99110218 10.57104492 15.70166016 C10.56252697 17.74353571 10.59130834 19.78261915 10.62304688 21.82421875 C10.62240234 23.10941406 10.62175781 24.39460938 10.62109375 25.71875 C10.62387329 27.48895508 10.62387329 27.48895508 10.62670898 29.29492188 C10.125 32.25 10.125 32.25 8.27368164 34.13110352 C5.45006764 35.60146177 3.29886027 35.68353267 0.125 35.6875 C-0.90625 35.70683594 -1.9375 35.72617188 -3 35.74609375 C-6.61788418 35.1218121 -7.60478814 34.09016843 -9.875 31.25 C-10.32910156 28.68457031 -10.32910156 28.68457031 -10.265625 25.828125 C-10.25273437 24.80332031 -10.23984375 23.77851563 -10.2265625 22.72265625 C-10.17628906 21.12744141 -10.17628906 21.12744141 -10.125 19.5 C-10.10695313 18.42105469 -10.08890625 17.34210938 -10.0703125 16.23046875 C-10.02321415 13.56941212 -9.957456 10.91015746 -9.875 8.25 C-11.195 7.92 -12.515 7.59 -13.875 7.25 C-13.545 6.59 -13.215 5.93 -12.875 5.25 C-11.555 5.25 -10.235 5.25 -8.875 5.25 C-8.730625 4.610625 -8.58625 3.97125 -8.4375 3.3125 C-7.2356932 -1.09412495 -4.10165654 0.05032707 0 0 Z " fill="#28231B" transform="translate(315.875,157.75)"/>
<path d="M0 0 C1.85334961 -0.00580078 1.85334961 -0.00580078 3.74414062 -0.01171875 C5.03642578 -0.00011719 6.32871094 0.01148438 7.66015625 0.0234375 C9.5927832 0.00603516 9.5927832 0.00603516 11.56445312 -0.01171875 C13.41973633 -0.00591797 13.41973633 -0.00591797 15.3125 0 C16.44550537 0.00338379 17.57851074 0.00676758 18.74584961 0.01025391 C22.02706633 0.43813339 23.43003127 1.03852374 25.72265625 3.3984375 C26.21875 6.6484375 26.21875 6.6484375 26.16015625 10.3984375 C26.15886719 11.6359375 26.15757812 12.8734375 26.15625 14.1484375 C25.72265625 17.3984375 25.72265625 17.3984375 24.60375977 19.07666016 C21.82024805 21.0325242 19.56518313 20.78720142 16.19140625 20.796875 C14.90621094 20.80074219 13.62101562 20.80460937 12.296875 20.80859375 C11.62833496 20.80230957 10.95979492 20.79602539 10.27099609 20.78955078 C8.22946295 20.77349104 6.18990917 20.78940421 4.1484375 20.80859375 C2.86324219 20.80472656 1.57804688 20.80085938 0.25390625 20.796875 C-0.92623047 20.79349121 -2.10636719 20.79010742 -3.32226562 20.78662109 C-6.27734375 20.3984375 -6.27734375 20.3984375 -8.16064453 19.07666016 C-10.00000328 16.3123943 -9.67270987 13.65701668 -9.65234375 10.3984375 C-9.66007813 9.1609375 -9.6678125 7.9234375 -9.67578125 6.6484375 C-9.27734375 3.3984375 -9.27734375 3.3984375 -8.14477539 1.72021484 C-5.42838722 -0.20245812 -3.30332089 0.0098754 0 0 Z " fill="#F7F7F7" transform="translate(154.27734375,234.6015625)"/>
<path d="M0 0 C1.24007813 0.00064453 2.48015625 0.00128906 3.7578125 0.00195312 C5.70300781 0.02612305 5.70300781 0.02612305 7.6875 0.05078125 C8.98429687 0.04755859 10.28109375 0.04433594 11.6171875 0.04101562 C21.287029 0.09630058 21.287029 0.09630058 24.6875 2.36328125 C24.96363568 5.11869966 25.06007625 7.61419227 25 10.36328125 C25.00322266 11.100625 25.00644531 11.83796875 25.00976562 12.59765625 C24.95457949 18.09620176 24.95457949 18.09620176 22.6875 20.36328125 C19.73828125 20.62207031 19.73828125 20.62207031 16 20.62890625 C15.34169189 20.6308197 14.68338379 20.63273315 14.00512695 20.63470459 C12.6131146 20.63606575 11.22108953 20.63237408 9.82910156 20.62402344 C7.69567411 20.61332225 5.56308869 20.62392031 3.4296875 20.63671875 C2.07812314 20.63539714 0.7265593 20.63283472 -0.625 20.62890625 C-1.85863281 20.62665039 -3.09226562 20.62439453 -4.36328125 20.62207031 C-7.3125 20.36328125 -7.3125 20.36328125 -9.3125 18.36328125 C-9.53805081 15.83535462 -9.63688591 13.45272549 -9.625 10.92578125 C-9.64111328 10.24451172 -9.65722656 9.56324219 -9.67382812 8.86132812 C-9.67867384 3.9138495 -9.67867384 3.9138495 -8.18432617 1.66699219 C-5.45115019 -0.23664153 -3.30565968 -0.00865723 0 0 Z " fill="#F9F9F9" transform="translate(264.3125,234.63671875)"/>
<path d="M0 0 C3.3 0 6.6 0 10 0 C12.97 5.28 15.94 10.56 19 16 C19.99 16 20.98 16 22 16 C24.97 10.72 27.94 5.44 31 0 C34.3 0 37.6 0 41 0 C37.60691018 7.15859194 33.89393653 14.05230964 29.875 20.875 C29.45557129 21.587771 29.03614258 22.30054199 28.60400391 23.03491211 C26.18440263 27.10849664 23.66489952 31.0824749 21 35 C17.80786401 32.06419231 15.74724605 29.13986733 13.65234375 25.3515625 C13.04712891 24.26359375 12.44191406 23.175625 11.81835938 22.0546875 C11.19767578 20.92289063 10.57699219 19.79109375 9.9375 18.625 C9.31294922 17.5009375 8.68839844 16.376875 8.04492188 15.21875 C5.26072639 10.19115261 2.54521842 5.153577 0 0 Z " fill="#272118" transform="translate(196,205)"/>
<path d="M0 0 C1.10261576 -0.00445668 1.10261576 -0.00445668 2.22750658 -0.0090034 C4.6798759 -0.01764446 7.13219615 -0.01919476 9.58457947 -0.02069092 C11.34760135 -0.02532245 13.11062224 -0.03034756 14.87364197 -0.03573608 C19.65706447 -0.04883218 24.44047295 -0.05529991 29.22391057 -0.05974674 C32.21677477 -0.06268274 35.20963519 -0.0667886 38.20249748 -0.07125092 C47.57895326 -0.08492019 56.95540032 -0.09458892 66.33186537 -0.09845281 C77.13187716 -0.10292848 87.93176206 -0.12045602 98.73173529 -0.1494534 C107.09462555 -0.17112261 115.45748026 -0.18115992 123.82039827 -0.18249393 C128.80795867 -0.18353845 133.7953997 -0.18937063 138.78293037 -0.20731354 C143.48041348 -0.22388441 148.17768867 -0.22590629 152.87519073 -0.21717453 C154.59033963 -0.21640889 156.30550013 -0.2206838 158.02062035 -0.23063278 C173.81706231 -0.31682031 187.73018115 0.98434609 199.81480408 12.31622314 C204.08659629 16.87963217 206.99937355 21.42246309 209.49449158 27.14044189 C208.50449158 27.14044189 207.51449158 27.14044189 206.49449158 27.14044189 C205.20542908 25.23419189 205.20542908 25.23419189 203.86949158 22.64044189 C199.0987398 14.30343508 192.33588876 8.77044643 183.49449158 5.14044189 C182.43720997 4.62930375 182.43720997 4.62930375 181.35856915 4.10783958 C177.78612116 2.90117606 174.47242468 2.85694543 170.74737549 2.87301636 C169.97428407 2.86848524 169.20119266 2.86395413 168.40467423 2.85928571 C165.81777174 2.84663974 163.23107974 2.84826222 160.64414978 2.84991455 C158.78773732 2.8439293 156.93132735 2.83712376 155.07492065 2.82955933 C150.03337046 2.81188879 144.99188816 2.80720342 139.95030999 2.80592775 C136.79850258 2.80450585 133.64671241 2.80023544 130.49490929 2.79493332 C119.49321269 2.77642746 108.49156455 2.76826314 97.48985291 2.76983643 C87.24530797 2.77103701 77.000974 2.74995233 66.75648242 2.7183491 C57.95374034 2.69216428 49.15106704 2.6814701 40.34828633 2.68274724 C35.0941792 2.68325636 29.84025942 2.67760154 24.58619118 2.65639114 C19.64080198 2.63697244 14.69577812 2.63690918 9.75037575 2.65142441 C7.9404395 2.6535093 6.13048017 2.64883073 4.32058334 2.63670349 C-8.03248913 2.47699345 -8.03248913 2.47699345 -19.67533588 6.2825222 C-21.50550842 7.14044189 -21.50550842 7.14044189 -24.50550842 7.14044189 C-22.39718025 4.80365711 -20.65078873 3.57720919 -17.69300842 2.51544189 C-17.04718811 2.27567627 -16.4013678 2.03591064 -15.73597717 1.78887939 C-10.50359448 0.26773136 -5.42720857 0.01230177 0 0 Z " fill="#9EBCEA" transform="translate(133.50550842285156,69.85955810546875)"/>
<path d="M0 0 C21.45 0 42.9 0 65 0 C65 16.83 65 33.66 65 51 C63.68 51 62.36 51 61 51 C61 35.49 61 19.98 61 4 C40.87 4 20.74 4 0 4 C0 2.68 0 1.36 0 0 Z " fill="#4F7BBD" transform="translate(140,153)"/>
<path d="M0 0 C21.45 0 42.9 0 65 0 C65 16.83 65 33.66 65 51 C64.01 51 63.02 51 62 51 C61.67 35.49 61.34 19.98 61 4 C40.87 4 20.74 4 0 4 C0 2.68 0 1.36 0 0 Z " fill="#4E7BBD" transform="translate(228,153)"/>
<path d="M0 0 C0.33 0 0.66 0 1 0 C1 15.51 1 31.02 1 47 C8.26 47 15.52 47 23 47 C21.0032343 43.43565148 19.00345 39.87309095 17 36.3125 C16.41001221 35.26352539 15.82002441 34.21455078 15.2121582 33.13378906 C11.41284737 26.41061335 7.49390447 19.80709391 3.29296875 13.328125 C2 11 2 11 2 8 C3.98 7.67 5.96 7.34 8 7 C8.34901367 7.64469238 8.69802734 8.28938477 9.05761719 8.95361328 C11.86021042 14.11314147 14.69364504 19.25293891 17.578125 24.3671875 C18.18140625 25.43710938 18.7846875 26.50703125 19.40625 27.609375 C20.64922801 29.8109208 21.89406036 32.01142055 23.140625 34.2109375 C24.0378125 35.80421875 24.0378125 35.80421875 24.953125 37.4296875 C25.49098633 38.38085449 26.02884766 39.33202148 26.58300781 40.31201172 C28 43 28 43 30 48 C20.1 48 10.2 48 0 48 C0 32.16 0 16.32 0 0 Z " fill="#4E77B4" transform="translate(139,157)"/>
<path d="M0 0 C8.58 0 17.16 0 26 0 C26.33 3.96 26.66 7.92 27 12 C30.32067665 15.32067665 30.70955683 15.38466927 35.10546875 15.51171875 C36.08837891 15.54716797 37.07128906 15.58261719 38.08398438 15.61914062 C39.10814453 15.64169922 40.13230469 15.66425781 41.1875 15.6875 C42.74114258 15.73874023 42.74114258 15.73874023 44.32617188 15.79101562 C46.8840066 15.87352642 49.44149723 15.94266572 52 16 C51.1875 17.9375 51.1875 17.9375 50 20 C45.72108211 21.42630596 41.60862537 21.3048437 37.125 21.375 C36.22652344 21.41238281 35.32804687 21.44976562 34.40234375 21.48828125 C29.70984154 21.55066311 27.70394452 21.56423034 23.9296875 18.5390625 C23.29289062 17.70117188 22.65609375 16.86328125 22 16 C21.67 15.67 21.34 15.34 21 15 C21 11.37 21 7.74 21 4 C13.41 4 5.82 4 -2 4 C-1.34 2.68 -0.68 1.36 0 0 Z " fill="#4E77B4" transform="translate(224,273)"/>
<path d="M0 0 C1.32 0 2.64 0 4 0 C4.01458252 0.68102783 4.02916504 1.36205566 4.04418945 2.0637207 C4.11862696 5.14722215 4.21530083 8.22963567 4.3125 11.3125 C4.33505859 12.38435547 4.35761719 13.45621094 4.38085938 14.56054688 C4.41630859 15.58857422 4.45175781 16.61660156 4.48828125 17.67578125 C4.51446533 18.62364502 4.54064941 19.57150879 4.56762695 20.5480957 C5.06931958 23.39309799 5.69259661 24.30937269 8 26 C10.73230305 26.57775884 10.73230305 26.57775884 13.6875 26.6875 C14.68136719 26.75324219 15.67523438 26.81898438 16.69921875 26.88671875 C17.45847656 26.92410156 18.21773438 26.96148437 19 27 C18.34 28.32 17.68 29.64 17 31 C14.87506859 31.02693575 12.75004088 31.04636628 10.625 31.0625 C9.44164062 31.07410156 8.25828125 31.08570313 7.0390625 31.09765625 C4 31 4 31 2 30 C1.67 51.12 1.34 72.24 1 94 C0.67 94 0.34 94 0 94 C0 62.98 0 31.96 0 0 Z " fill="#4C70A8" transform="translate(302,166)"/>
<path d="M0 0 C0.01981934 0.83772949 0.03963867 1.67545898 0.06005859 2.53857422 C0.13810612 5.64365834 0.22479635 8.74834539 0.31738281 11.85302734 C0.37454036 13.85886971 0.42168596 15.86498918 0.46875 17.87109375 C0.50742188 19.12792969 0.54609375 20.38476562 0.5859375 21.6796875 C0.6173584 22.84226074 0.6487793 24.00483398 0.68115234 25.20263672 C0.72157869 28.13656482 0.72157869 28.13656482 3 30 C5.89223503 30.46396693 5.89223503 30.46396693 9.125 30.625 C10.22070312 30.69976562 11.31640625 30.77453125 12.4453125 30.8515625 C13.28835937 30.90054688 14.13140625 30.94953125 15 31 C14 34 14 34 12 35 C9.8576785 35.14833651 7.70975871 35.22127413 5.5625 35.25 C4.40878906 35.27578125 3.25507812 35.3015625 2.06640625 35.328125 C-1 35 -1 35 -2.66674805 33.90356445 C-4.66687866 31.047857 -4.38892097 28.66957081 -4.3984375 25.21484375 C-4.40130768 24.55795059 -4.40417786 23.90105743 -4.40713501 23.22425842 C-4.40917341 21.83821753 -4.40365905 20.45214772 -4.39111328 19.06616211 C-4.37502834 16.94124359 -4.39098014 14.81821946 -4.41015625 12.69335938 C-4.40817428 11.34634996 -4.40433155 9.99934173 -4.3984375 8.65234375 C-4.39505371 7.42507568 -4.39166992 6.19780762 -4.38818359 4.93334961 C-4.26008301 3.96534424 -4.13198242 2.99733887 -4 2 C-1 0 -1 0 0 0 Z " fill="#507AB9" transform="translate(107,162)"/>
<path d="M0 0 C4.20686484 -0.29133413 8.41114261 -0.46826779 12.625 -0.625 C14.40970703 -0.75068359 14.40970703 -0.75068359 16.23046875 -0.87890625 C19.74266167 -0.9770122 22.60779974 -0.93068348 26 0 C29.07210862 2.91191913 30.85737119 5.92774584 32 10 C31.69460058 13.38999478 31.43055321 14.56944679 29 17 C28.01993141 15.37554381 27.04097364 13.75041739 26.0625 12.125 C25.51722656 11.22007812 24.97195312 10.31515625 24.41015625 9.3828125 C23.56101983 7.94798364 22.74562276 6.49124552 22 5 C14.74 4.67 7.48 4.34 0 4 C0 2.68 0 1.36 0 0 Z " fill="#507ABA" transform="translate(183,273)"/>
<path d="M0 0 C2.31 0 4.62 0 7 0 C13.18231609 9.26495855 13.18231609 9.26495855 12.765625 13.23046875 C11.9375 15.1875 11.9375 15.1875 10.9453125 17.07421875 C9.38018362 20.26268378 9.31330751 23.49095594 9 27 C7.68 26.67 6.36 26.34 5 26 C5.95730487 19.16210807 5.95730487 19.16210807 6.75 16.15234375 C7.08072156 11.98215152 5.79134352 10.17631353 3.5625 6.6875 C0 1.01956947 0 1.01956947 0 0 Z " fill="#537DBA" transform="translate(122,134)"/>
<path d="M0 0 C5.39045572 0.83930341 7.90531947 4.81392402 11 9 C12.52255536 11.62341171 13.76065354 14.22386394 15 17 C14.01 17 13.02 17 12 17 C10.60546875 15.05859375 10.60546875 15.05859375 9.1875 12.4375 C6.53427145 7.76276399 3.61889763 3.96355454 0 0 Z " fill="#7CA6E5" transform="translate(328,80)"/>
<path d="M0 0 C0.66 0 1.32 0 2 0 C1.34 4.62 0.68 9.24 0 14 C-1.32 13.67 -2.64 13.34 -4 13 C-2.8 2.8 -2.8 2.8 0 0 Z " fill="#4E77B3" transform="translate(131,147)"/>
<path d="M0 0 C8.72085083 0.03783449 16.71872481 2.71872481 23 9 C19.72323482 8.59040435 17.19465249 7.65669159 14.3125 6.125 C9.73414303 3.72639615 4.97381529 2.34537627 0 1 C0 0.67 0 0.34 0 0 Z " fill="#99B9EB" transform="translate(307,71)"/>
<path d="M0 0 C-6.5 4 -6.5 4 -11 4 C-11 2.68 -11 1.36 -11 0 C-3.57142857 -1.28571429 -3.57142857 -1.28571429 0 0 Z " fill="#507AB9" transform="translate(293,273)"/>
<path d="M0 0 C0.66 0 1.32 0 2 0 C1.51058824 5.50588235 1.51058824 5.50588235 -0.9375 7.875 C-3 9 -3 9 -5 9 C-3.50079488 5.88626628 -1.91847864 2.87771795 0 0 Z " fill="#0B0906" transform="translate(341,304)"/>
<path d="M0 0 C0.66 0.33 1.32 0.66 2 1 C1.75 2.875 1.75 2.875 1 5 C-1.0625 6.25 -1.0625 6.25 -3 7 C-1.125 1.125 -1.125 1.125 0 0 Z " fill="#1E160D" transform="translate(298,145)"/>
</svg>
